<svg width="166" height="62" viewBox="0 0 166 62" fill="none" xmlns="http://www.w3.org/2000/svg">
<g clip-path="url(#clip0_7_125)">
<g clip-path="url(#clip1_7_125)">
<path d="M15.75 43.4999C15.75 43.8315 15.6183 44.1494 15.3839 44.3838C15.1495 44.6183 14.8315 44.7499 14.5 44.7499H7C6.66848 44.7499 6.35054 44.6183 6.11612 44.3838C5.8817 44.1494 5.75 43.8315 5.75 43.4999C5.75 43.1684 5.8817 42.8505 6.11612 42.6161C6.35054 42.3816 6.66848 42.2499 7 42.2499H14.5C14.8315 42.2499 15.1495 42.3816 15.3839 42.6161C15.6183 42.8505 15.75 43.1684 15.75 43.4999ZM10.75 38.4999C10.75 38.1684 10.6183 37.8505 10.3839 37.6161C10.1495 37.3816 9.83152 37.2499 9.5 37.2499H4.5C4.16848 37.2499 3.85054 37.3816 3.61612 37.6161C3.3817 37.8505 3.25 38.1684 3.25 38.4999C3.25 38.8315 3.3817 39.1494 3.61612 39.3838C3.85054 39.6183 4.16848 39.7499 4.5 39.7499H9.5C9.83152 39.7499 10.1495 39.6183 10.3839 39.3838C10.6183 39.1494 10.75 38.8315 10.75 38.4999ZM39.5 40.9999V42.2499C39.5 42.913 39.2366 43.5489 38.7678 44.0177C38.2989 44.4866 37.663 44.7499 37 44.7499H22.5172C21.8581 44.7513 21.2254 44.4911 20.7578 44.0265L3.99688 27.7843L3.98281 27.7703C3.51433 27.3015 3.25116 26.6658 3.25116 26.0031C3.25116 25.3403 3.51433 24.7047 3.98281 24.2359L13.9828 14.2171L14.0062 14.1953C14.477 13.7418 15.1074 13.4919 15.761 13.4998C16.4146 13.5077 17.0388 13.7727 17.4984 14.2374L18.7812 15.5312C19.2201 15.9707 19.4797 16.5577 19.5094 17.1781C19.6859 20.7531 22.1656 23.164 25.9641 23.4703C26.5864 23.5237 27.1661 23.8082 27.5892 24.2677C28.0123 24.7272 28.248 25.3285 28.25 25.9531V29.7499C28.25 31.076 28.7768 32.3478 29.7145 33.2855C30.6521 34.2232 31.9239 34.7499 33.25 34.7499C34.9076 34.7499 36.4973 35.4084 37.6694 36.5805C38.8415 37.7526 39.5 39.3423 39.5 40.9999ZM37 40.9999C37 40.0054 36.6049 39.0516 35.9016 38.3483C35.1984 37.645 34.2446 37.2499 33.25 37.2499C31.7771 37.2517 30.3367 36.8167 29.1109 35.9999H24.5C24.1685 35.9999 23.8505 35.8683 23.6161 35.6338C23.3817 35.3994 23.25 35.0815 23.25 34.7499C23.25 34.4184 23.3817 34.1005 23.6161 33.8661C23.8505 33.6316 24.1685 33.4999 24.5 33.4999H26.7594C26.3108 32.7275 26.0049 31.8807 25.8562 30.9999H23.25C22.9185 30.9999 22.6005 30.8682 22.3661 30.6338C22.1317 30.3994 22 30.0815 22 29.7499C22 29.4184 22.1317 29.1005 22.3661 28.8661C22.6005 28.6316 22.9185 28.4999 23.25 28.4999H25.75V25.9531C23.3391 25.7562 21.2375 24.8593 19.675 23.3593C18.0516 21.7968 17.1313 19.7015 17.0188 17.2921L15.7297 15.9999L5.75 25.9999L22.5031 42.2343L22.5172 42.2468H37V40.9999Z" fill="#00875F"/>
</g>
<path d="M57.0264 19.1396V20.5H51.7422V19.1396H57.0264ZM52.2275 10.5469V20.5H50.5117V10.5469H52.2275ZM56.3359 14.7031V16.043H51.7422V14.7031H56.3359ZM56.9922 10.5469V11.9141H51.7422V10.5469H56.9922ZM60.1436 10.5469V20.5H58.4277V10.5469H60.1436ZM64.2041 14.9014V16.2617H59.7061V14.9014H64.2041ZM64.7715 10.5469V11.9141H59.7061V10.5469H64.7715ZM66.1387 10.5469H69.6592C70.4157 10.5469 71.0605 10.6608 71.5938 10.8887C72.127 11.1165 72.5348 11.4538 72.8174 11.9004C73.1045 12.3424 73.248 12.8893 73.248 13.541C73.248 14.0378 73.1569 14.4753 72.9746 14.8535C72.7923 15.2318 72.5348 15.5508 72.2021 15.8105C71.8695 16.0658 71.473 16.264 71.0127 16.4053L70.4932 16.6582H67.3281L67.3145 15.2979H69.6865C70.0967 15.2979 70.4385 15.2249 70.7119 15.0791C70.9854 14.9333 71.1904 14.735 71.3271 14.4844C71.4684 14.2292 71.5391 13.9421 71.5391 13.623C71.5391 13.2767 71.4707 12.9759 71.334 12.7207C71.2018 12.4609 70.9967 12.2627 70.7188 12.126C70.4408 11.9847 70.0876 11.9141 69.6592 11.9141H67.8545V20.5H66.1387V10.5469ZM71.8193 20.5L69.4814 16.0293L71.2793 16.0225L73.6514 20.4111V20.5H71.8193ZM78.833 11.873L75.8594 20.5H74.0615L77.8076 10.5469H78.9561L78.833 11.873ZM81.3213 20.5L78.3408 11.873L78.2109 10.5469H79.3662L83.126 20.5H81.3213ZM81.1777 16.8086V18.1689H75.7637V16.8086H81.1777ZM86.0723 10.5469V20.5H84.3564V10.5469H86.0723ZM88.9023 10.5469H90.4336L93.3115 18.2236L96.1826 10.5469H97.7139L93.9131 20.5H92.6963L88.9023 10.5469ZM88.2051 10.5469H89.6611L89.9141 17.1914V20.5H88.2051V10.5469ZM96.9551 10.5469H98.418V20.5H96.7021V17.1914L96.9551 10.5469ZM110.518 14.7031V16.0635H105.233V14.7031H110.518ZM105.657 10.5469V20.5H103.941V10.5469H105.657ZM111.837 10.5469V20.5H110.128V10.5469H111.837ZM113.785 19.6797C113.785 19.4245 113.872 19.2103 114.045 19.0371C114.218 18.8594 114.453 18.7705 114.749 18.7705C115.05 18.7705 115.285 18.8594 115.453 19.0371C115.626 19.2103 115.713 19.4245 115.713 19.6797C115.713 19.9349 115.626 20.1491 115.453 20.3223C115.285 20.4954 115.05 20.582 114.749 20.582C114.453 20.582 114.218 20.4954 114.045 20.3223C113.872 20.1491 113.785 19.9349 113.785 19.6797Z" fill="#444446"/>
<path d="M62.4727 45.7578V48.5H53.3906V45.7578H62.4727ZM54.5391 31.4375V48.5H51.0234V31.4375H54.5391ZM61.2891 38.3867V41.0586H53.3906V38.3867H61.2891ZM62.4609 31.4375V34.1914H53.3906V31.4375H62.4609ZM71.168 44.9961C71.168 44.7539 71.0977 44.5352 70.957 44.3398C70.8164 44.1445 70.5547 43.9648 70.1719 43.8008C69.7969 43.6289 69.2539 43.4727 68.543 43.332C67.9023 43.1914 67.3047 43.0156 66.75 42.8047C66.2031 42.5859 65.7266 42.3242 65.3203 42.0195C64.9219 41.7148 64.6094 41.3555 64.3828 40.9414C64.1562 40.5195 64.043 40.0391 64.043 39.5C64.043 38.9688 64.1562 38.4688 64.3828 38C64.6172 37.5312 64.9492 37.1172 65.3789 36.7578C65.8164 36.3906 66.3477 36.1055 66.9727 35.9023C67.6055 35.6914 68.3164 35.5859 69.1055 35.5859C70.207 35.5859 71.1523 35.7617 71.9414 36.1133C72.7383 36.4648 73.3477 36.9492 73.7695 37.5664C74.1992 38.1758 74.4141 38.8711 74.4141 39.6523H71.0391C71.0391 39.3242 70.9688 39.0312 70.8281 38.7734C70.6953 38.5078 70.4844 38.3008 70.1953 38.1523C69.9141 37.9961 69.5469 37.918 69.0938 37.918C68.7188 37.918 68.3945 37.9844 68.1211 38.1172C67.8477 38.2422 67.6367 38.4141 67.4883 38.6328C67.3477 38.8438 67.2773 39.0781 67.2773 39.3359C67.2773 39.5312 67.3164 39.707 67.3945 39.8633C67.4805 40.0117 67.6172 40.1484 67.8047 40.2734C67.9922 40.3984 68.2344 40.5156 68.5312 40.625C68.8359 40.7266 69.2109 40.8203 69.6562 40.9062C70.5703 41.0938 71.3867 41.3398 72.1055 41.6445C72.8242 41.9414 73.3945 42.3477 73.8164 42.8633C74.2383 43.3711 74.4492 44.0391 74.4492 44.8672C74.4492 45.4297 74.3242 45.9453 74.0742 46.4141C73.8242 46.8828 73.4648 47.293 72.9961 47.6445C72.5273 47.9883 71.9648 48.2578 71.3086 48.4531C70.6602 48.6406 69.9297 48.7344 69.1172 48.7344C67.9375 48.7344 66.9375 48.5234 66.1172 48.1016C65.3047 47.6797 64.6875 47.1445 64.2656 46.4961C63.8516 45.8398 63.6445 45.168 63.6445 44.4805H66.8438C66.8594 44.9414 66.9766 45.3125 67.1953 45.5938C67.4219 45.875 67.707 46.0781 68.0508 46.2031C68.4023 46.3281 68.7812 46.3906 69.1875 46.3906C69.625 46.3906 69.9883 46.332 70.2773 46.2148C70.5664 46.0898 70.7852 45.9258 70.9336 45.7227C71.0898 45.5117 71.168 45.2695 71.168 44.9961ZM80.0156 38.2578V53.375H76.6406V35.8203H79.7695L80.0156 38.2578ZM88.043 42.0195V42.2656C88.043 43.1875 87.9336 44.043 87.7148 44.832C87.5039 45.6211 87.1914 46.3086 86.7773 46.8945C86.3633 47.4727 85.8477 47.9258 85.2305 48.2539C84.6211 48.5742 83.918 48.7344 83.1211 48.7344C82.3477 48.7344 81.6758 48.5781 81.1055 48.2656C80.5352 47.9531 80.0547 47.5156 79.6641 46.9531C79.2812 46.3828 78.9727 45.7227 78.7383 44.9727C78.5039 44.2227 78.3242 43.418 78.1992 42.5586V41.9141C78.3242 40.9922 78.5039 40.1484 78.7383 39.3828C78.9727 38.6094 79.2812 37.9414 79.6641 37.3789C80.0547 36.8086 80.5312 36.3672 81.0938 36.0547C81.6641 35.7422 82.332 35.5859 83.0977 35.5859C83.9023 35.5859 84.6094 35.7383 85.2188 36.043C85.8359 36.3477 86.3516 36.7852 86.7656 37.3555C87.1875 37.9258 87.5039 38.6055 87.7148 39.3945C87.9336 40.1836 88.043 41.0586 88.043 42.0195ZM84.6562 42.2656V42.0195C84.6562 41.4805 84.6094 40.9844 84.5156 40.5312C84.4297 40.0703 84.2891 39.668 84.0938 39.3242C83.9062 38.9805 83.6562 38.7148 83.3438 38.5273C83.0391 38.332 82.668 38.2344 82.2305 38.2344C81.7695 38.2344 81.375 38.3086 81.0469 38.457C80.7266 38.6055 80.4648 38.8203 80.2617 39.1016C80.0586 39.3828 79.9062 39.7188 79.8047 40.1094C79.7031 40.5 79.6406 40.9414 79.6172 41.4336V43.0625C79.6562 43.6406 79.7656 44.1602 79.9453 44.6211C80.125 45.0742 80.4023 45.4336 80.7773 45.6992C81.1523 45.9648 81.6445 46.0977 82.2539 46.0977C82.6992 46.0977 83.0742 46 83.3789 45.8047C83.6836 45.6016 83.9297 45.3242 84.1172 44.9727C84.3125 44.6211 84.4492 44.2148 84.5273 43.7539C84.6133 43.293 84.6562 42.7969 84.6562 42.2656ZM89.6016 42.2891V42.043C89.6016 41.1133 89.7344 40.2578 90 39.4766C90.2656 38.6875 90.6523 38.0039 91.1602 37.4258C91.668 36.8477 92.293 36.3984 93.0352 36.0781C93.7773 35.75 94.6289 35.5859 95.5898 35.5859C96.5508 35.5859 97.4062 35.75 98.1562 36.0781C98.9062 36.3984 99.5352 36.8477 100.043 37.4258C100.559 38.0039 100.949 38.6875 101.215 39.4766C101.48 40.2578 101.613 41.1133 101.613 42.043V42.2891C101.613 43.2109 101.48 44.0664 101.215 44.8555C100.949 45.6367 100.559 46.3203 100.043 46.9062C99.5352 47.4844 98.9102 47.9336 98.168 48.2539C97.4258 48.5742 96.5742 48.7344 95.6133 48.7344C94.6523 48.7344 93.7969 48.5742 93.0469 48.2539C92.3047 47.9336 91.6758 47.4844 91.1602 46.9062C90.6523 46.3203 90.2656 45.6367 90 44.8555C89.7344 44.0664 89.6016 43.2109 89.6016 42.2891ZM92.9766 42.043V42.2891C92.9766 42.8203 93.0234 43.3164 93.1172 43.7773C93.2109 44.2383 93.3594 44.6445 93.5625 44.9961C93.7734 45.3398 94.0469 45.6094 94.3828 45.8047C94.7188 46 95.1289 46.0977 95.6133 46.0977C96.082 46.0977 96.4844 46 96.8203 45.8047C97.1562 45.6094 97.4258 45.3398 97.6289 44.9961C97.832 44.6445 97.9805 44.2383 98.0742 43.7773C98.1758 43.3164 98.2266 42.8203 98.2266 42.2891V42.043C98.2266 41.5273 98.1758 41.043 98.0742 40.5898C97.9805 40.1289 97.8281 39.7227 97.6172 39.3711C97.4141 39.0117 97.1445 38.7305 96.8086 38.5273C96.4727 38.3242 96.0664 38.2227 95.5898 38.2227C95.1133 38.2227 94.707 38.3242 94.3711 38.5273C94.043 38.7305 93.7734 39.0117 93.5625 39.3711C93.3594 39.7227 93.2109 40.1289 93.1172 40.5898C93.0234 41.043 92.9766 41.5273 92.9766 42.043ZM107.062 38.5859V48.5H103.688V35.8203H106.863L107.062 38.5859ZM110.883 35.7383L110.824 38.8672C110.66 38.8438 110.461 38.8242 110.227 38.8086C110 38.7852 109.793 38.7734 109.605 38.7734C109.129 38.7734 108.715 38.8359 108.363 38.9609C108.02 39.0781 107.73 39.2539 107.496 39.4883C107.27 39.7227 107.098 40.0078 106.98 40.3438C106.871 40.6797 106.809 41.0625 106.793 41.4922L106.113 41.2812C106.113 40.4609 106.195 39.707 106.359 39.0195C106.523 38.3242 106.762 37.7188 107.074 37.2031C107.395 36.6875 107.785 36.2891 108.246 36.0078C108.707 35.7266 109.234 35.5859 109.828 35.5859C110.016 35.5859 110.207 35.6016 110.402 35.6328C110.598 35.6562 110.758 35.6914 110.883 35.7383ZM119.273 35.8203V38.2109H111.891V35.8203H119.273ZM113.719 32.6914H117.094V44.6797C117.094 45.0469 117.141 45.3281 117.234 45.5234C117.336 45.7188 117.484 45.8555 117.68 45.9336C117.875 46.0039 118.121 46.0391 118.418 46.0391C118.629 46.0391 118.816 46.0312 118.98 46.0156C119.152 45.9922 119.297 45.9688 119.414 45.9453L119.426 48.4297C119.137 48.5234 118.824 48.5977 118.488 48.6523C118.152 48.707 117.781 48.7344 117.375 48.7344C116.633 48.7344 115.984 48.6133 115.43 48.3711C114.883 48.1211 114.461 47.7227 114.164 47.1758C113.867 46.6289 113.719 45.9102 113.719 45.0195V32.6914ZM127.031 48.7344C126.047 48.7344 125.164 48.5781 124.383 48.2656C123.602 47.9453 122.938 47.5039 122.391 46.9414C121.852 46.3789 121.438 45.7266 121.148 44.9844C120.859 44.2344 120.715 43.4375 120.715 42.5938V42.125C120.715 41.1641 120.852 40.2852 121.125 39.4883C121.398 38.6914 121.789 38 122.297 37.4141C122.812 36.8281 123.438 36.3789 124.172 36.0664C124.906 35.7461 125.734 35.5859 126.656 35.5859C127.555 35.5859 128.352 35.7344 129.047 36.0312C129.742 36.3281 130.324 36.75 130.793 37.2969C131.27 37.8438 131.629 38.5 131.871 39.2656C132.113 40.0234 132.234 40.8672 132.234 41.7969V43.2031H122.156V40.9531H128.918V40.6953C128.918 40.2266 128.832 39.8086 128.66 39.4414C128.496 39.0664 128.246 38.7695 127.91 38.5508C127.574 38.332 127.145 38.2227 126.621 38.2227C126.176 38.2227 125.793 38.3203 125.473 38.5156C125.152 38.7109 124.891 38.9844 124.688 39.3359C124.492 39.6875 124.344 40.1016 124.242 40.5781C124.148 41.0469 124.102 41.5625 124.102 42.125V42.5938C124.102 43.1016 124.172 43.5703 124.312 44C124.461 44.4297 124.668 44.8008 124.934 45.1133C125.207 45.4258 125.535 45.668 125.918 45.8398C126.309 46.0117 126.75 46.0977 127.242 46.0977C127.852 46.0977 128.418 45.9805 128.941 45.7461C129.473 45.5039 129.93 45.1406 130.312 44.6562L131.953 46.4375C131.688 46.8203 131.324 47.1875 130.863 47.5391C130.41 47.8906 129.863 48.1797 129.223 48.4062C128.582 48.625 127.852 48.7344 127.031 48.7344ZM141.012 44.9961C141.012 44.7539 140.941 44.5352 140.801 44.3398C140.66 44.1445 140.398 43.9648 140.016 43.8008C139.641 43.6289 139.098 43.4727 138.387 43.332C137.746 43.1914 137.148 43.0156 136.594 42.8047C136.047 42.5859 135.57 42.3242 135.164 42.0195C134.766 41.7148 134.453 41.3555 134.227 40.9414C134 40.5195 133.887 40.0391 133.887 39.5C133.887 38.9688 134 38.4688 134.227 38C134.461 37.5312 134.793 37.1172 135.223 36.7578C135.66 36.3906 136.191 36.1055 136.816 35.9023C137.449 35.6914 138.16 35.5859 138.949 35.5859C140.051 35.5859 140.996 35.7617 141.785 36.1133C142.582 36.4648 143.191 36.9492 143.613 37.5664C144.043 38.1758 144.258 38.8711 144.258 39.6523H140.883C140.883 39.3242 140.812 39.0312 140.672 38.7734C140.539 38.5078 140.328 38.3008 140.039 38.1523C139.758 37.9961 139.391 37.918 138.938 37.918C138.562 37.918 138.238 37.9844 137.965 38.1172C137.691 38.2422 137.48 38.4141 137.332 38.6328C137.191 38.8438 137.121 39.0781 137.121 39.3359C137.121 39.5312 137.16 39.707 137.238 39.8633C137.324 40.0117 137.461 40.1484 137.648 40.2734C137.836 40.3984 138.078 40.5156 138.375 40.625C138.68 40.7266 139.055 40.8203 139.5 40.9062C140.414 41.0938 141.23 41.3398 141.949 41.6445C142.668 41.9414 143.238 42.3477 143.66 42.8633C144.082 43.3711 144.293 44.0391 144.293 44.8672C144.293 45.4297 144.168 45.9453 143.918 46.4141C143.668 46.8828 143.309 47.293 142.84 47.6445C142.371 47.9883 141.809 48.2578 141.152 48.4531C140.504 48.6406 139.773 48.7344 138.961 48.7344C137.781 48.7344 136.781 48.5234 135.961 48.1016C135.148 47.6797 134.531 47.1445 134.109 46.4961C133.695 45.8398 133.488 45.168 133.488 44.4805H136.688C136.703 44.9414 136.82 45.3125 137.039 45.5938C137.266 45.875 137.551 46.0781 137.895 46.2031C138.246 46.3281 138.625 46.3906 139.031 46.3906C139.469 46.3906 139.832 46.332 140.121 46.2148C140.41 46.0898 140.629 45.9258 140.777 45.7227C140.934 45.5117 141.012 45.2695 141.012 44.9961Z" fill="#222129"/>
</g>
<defs>
<clipPath id="clip0_7_125">
<rect width="166" height="62" fill="white"/>
</clipPath>
<clipPath id="clip1_7_125">
<rect width="40" height="40" fill="white" transform="translate(-0.5 11)"/>
</clipPath>
</defs>
</svg>
