<svg width="30" height="26" viewBox="0 0 30 26" fill="none" xmlns="http://www.w3.org/2000/svg">
<path d="M12.4998 24C12.4998 24.3956 12.3825 24.7822 12.1628 25.1111C11.943 25.44 11.6306 25.6964 11.2652 25.8478C10.8997 25.9991 10.4976 26.0387 10.1096 25.9616C9.72167 25.8844 9.36531 25.6939 9.0856 25.4142C8.8059 25.1345 8.61542 24.7781 8.53825 24.3902C8.46108 24.0022 8.50068 23.6001 8.65206 23.2346C8.80343 22.8692 9.05978 22.5568 9.38868 22.3371C9.71758 22.1173 10.1043 22 10.4998 22C11.0302 22 11.539 22.2107 11.914 22.5858C12.2891 22.9609 12.4998 23.4696 12.4998 24ZM23.4998 22C23.1043 22 22.7176 22.1173 22.3887 22.3371C22.0598 22.5568 21.8034 22.8692 21.6521 23.2346C21.5007 23.6001 21.4611 24.0022 21.5382 24.3902C21.6154 24.7781 21.8059 25.1345 22.0856 25.4142C22.3653 25.6939 22.7217 25.8844 23.1096 25.9616C23.4976 26.0387 23.8997 25.9991 24.2652 25.8478C24.6306 25.6964 24.943 25.44 25.1628 25.1111C25.3825 24.7822 25.4998 24.3956 25.4998 24C25.4998 23.4696 25.2891 22.9609 24.914 22.5858C24.539 22.2107 24.0303 22 23.4998 22ZM29.4561 6.29375L25.8898 17.8825C25.703 18.4968 25.3232 19.0346 24.8067 19.416C24.2901 19.7975 23.6644 20.0022 23.0223 20H11.0086C10.3573 19.9976 9.72432 19.7842 9.20445 19.3919C8.68459 18.9996 8.3058 18.4494 8.12482 17.8237L3.60232 2H1.49982C1.2346 2 0.980246 1.89464 0.79271 1.70711C0.605174 1.51957 0.499817 1.26522 0.499817 1C0.499817 0.734784 0.605174 0.48043 0.79271 0.292893C0.980246 0.105357 1.2346 0 1.49982 0H3.60232C4.03658 0.00144056 4.4587 0.143485 4.80548 0.404872C5.15227 0.666259 5.40508 1.03293 5.52607 1.45L6.53982 5H28.4998C28.6563 4.99994 28.8106 5.03661 28.9504 5.10706C29.0901 5.17751 29.2113 5.27976 29.3044 5.40561C29.3974 5.53145 29.4596 5.67737 29.4859 5.83163C29.5123 5.98588 29.502 6.14417 29.4561 6.29375ZM27.1461 7H7.11107L10.0473 17.275C10.1071 17.4839 10.2332 17.6676 10.4066 17.7984C10.58 17.9292 10.7913 18 11.0086 18H23.0223C23.2363 18.0001 23.4447 17.9315 23.6168 17.8044C23.7889 17.6773 23.9157 17.4983 23.9786 17.2938L27.1461 7Z" fill="white"/>
</svg>
